<?xml version="1.0" encoding="iso-8859-1"?>
<!-- Generator: Adobe Illustrator 19.0.0, SVG Export Plug-In . SVG Version: 6.00 Build 0)  -->
<svg version="1.1" id="Layer_1" xmlns="http://www.w3.org/2000/svg" xmlns:xlink="http://www.w3.org/1999/xlink" x="0px" y="0px"
	 viewBox="0 0 512 512" style="enable-background:new 0 0 512 512;" xml:space="preserve">
<g transform="translate(1 1)">
	<g>
		<g>
			<path d="M167.107,163.693c-3.413-3.413-8.533-3.413-11.947,0l-85.333,85.333c-2.56,2.56-3.413,5.973-1.707,9.387
				c0.853,1.707,1.707,2.56,2.56,3.413l84.48,84.48c1.707,1.707,3.413,2.56,5.973,2.56s4.267-0.853,5.973-2.56
				c3.413-3.413,3.413-8.533,0-11.947L87.747,255l79.36-79.36C170.52,172.227,170.52,167.107,167.107,163.693z"/>
			<path d="M439.32,248.173l-84.48-84.48c-3.413-3.413-8.533-3.413-11.947,0c-3.413,3.413-3.413,8.533,0,11.947l79.36,79.36
				l-79.36,79.36c-3.413,3.413-3.413,8.533,0,11.947c1.707,1.707,3.413,2.56,5.973,2.56s5.12-0.853,5.973-2.56l85.333-85.333
				c2.56-2.56,3.413-5.973,1.707-9.387C441.027,249.88,440.173,249.027,439.32,248.173z"/>
			<path d="M400.067-1H109.933C48.493-1-1,48.493-1,109.933v290.133C-1,461.507,48.493,511,109.933,511h290.133
				C461.507,511,511,461.507,511,400.067V109.933C511,48.493,461.507-1,400.067-1z M493.933,400.067
				c0,52.053-41.813,93.867-93.867,93.867H109.933c-52.053,0-93.867-41.813-93.867-93.867V109.933
				c0-52.053,41.813-93.867,93.867-93.867h290.133c52.053,0,93.867,41.813,93.867,93.867V400.067z"/>
			<path d="M255,144.067c-28.16,0-51.2,23.04-51.2,51.2c0,5.12,3.413,8.533,8.533,8.533c5.12,0,8.533-3.413,8.533-8.533
				c0-18.773,15.36-34.133,34.133-34.133c18.773,0,34.133,15.36,34.133,34.133c0,9.387-4.267,18.773-11.947,25.6
				c-19.627,17.067-30.72,41.813-30.72,68.267v4.267c0,5.12,3.413,8.533,8.533,8.533s8.533-3.413,8.533-8.533v-4.267
				c0-21.333,9.387-41.813,24.747-54.613c11.093-10.24,17.92-23.893,17.92-39.253C306.2,167.107,283.16,144.067,255,144.067z"/>
			<path d="M255,323.267c-6.827,0-12.8,5.973-12.8,12.8s5.973,12.8,12.8,12.8s12.8-5.973,12.8-12.8S261.827,323.267,255,323.267z"/>
		</g>
	</g>
</g>
<g>
</g>
<g>
</g>
<g>
</g>
<g>
</g>
<g>
</g>
<g>
</g>
<g>
</g>
<g>
</g>
<g>
</g>
<g>
</g>
<g>
</g>
<g>
</g>
<g>
</g>
<g>
</g>
<g>
</g>
</svg>
